/* XPM */
static char *_11x3_wkszx[] = {
/* columns rows colors chars-per-pixel */
"64 64 111 2 ",
"   c #050706",
".  c #07090A",
"X  c #0C0D0B",
"o  c #0F100C",
"O  c #12130E",
"+  c #0F1010",
"@  c #151612",
"#  c #181712",
"$  c #171812",
"%  c #1A1B13",
"&  c #1B1D19",
"*  c #1F2116",
"=  c #1F2118",
"-  c #212216",
";  c #22241B",
":  c #28271C",
">  c #26291C",
",  c #2A2B1E",
"<  c #312F1F",
"1  c #252723",
"2  c #272821",
"3  c #2C2C22",
"4  c #2A2D2A",
"5  c #312E24",
"6  c #333325",
"7  c #393727",
"8  c #363827",
"9  c #3A3827",
"0  c #35352A",
"q  c #383628",
"w  c #37392C",
"e  c #3B3C2C",
"r  c #343631",
"t  c #353831",
"y  c #3B3D33",
"u  c #3D3E39",
"i  c #423E2D",
"p  c #413F32",
"a  c #3E402F",
"s  c #3E4132",
"d  c #3E423B",
"f  c #43412E",
"g  c #4B452F",
"h  c #444433",
"j  c #4A4633",
"k  c #464936",
"l  c #4C4A35",
"z  c #42443A",
"x  c #48463E",
"c  c #464A39",
"v  c #4D4D39",
"b  c #514C36",
"n  c #514E39",
"m  c #4E513C",
"M  c #535037",
"N  c #52533D",
"B  c #58553E",
"V  c #55583F",
"C  c #3F4441",
"Z  c #434542",
"A  c #464A43",
"S  c #4B4C43",
"D  c #464A48",
"F  c #4E4F4A",
"G  c #514E40",
"H  c #4E5441",
"J  c #4D5049",
"K  c #535641",
"L  c #5B5642",
"P  c #555942",
"I  c #5B5A44",
"U  c #54534B",
"Y  c #575A4B",
"T  c #5B5C4A",
"R  c #575951",
"E  c #5D5E55",
"W  c #5E5E5B",
"Q  c #625D45",
"!  c #605E54",
"~  c #5E614B",
"^  c #5F615A",
"/  c #656045",
"(  c #686146",
")  c #62634C",
"_  c #686348",
"`  c #6A6A4F",
"'  c #636253",
"]  c #6C6B52",
"[  c #63645C",
"{  c #68675F",
"}  c #65695D",
"|  c #6C6C5B",
" . c #726F56",
".. c #6D7058",
"X. c #75745A",
"o. c #7B765E",
"O. c #77795D",
"+. c #7B7A5E",
"@. c #696965",
"#. c #6B6B6A",
"$. c #757464",
"%. c #7E7761",
"&. c #757A60",
"*. c #7C7B62",
"=. c #7B7F6F",
"-. c #7E7E79",
";. c #80775D",
":. c #827A5F",
">. c #837D62",
",. c #7F8061",
"<. c #82816B",
/* pixels */
"z $.]  .O.O.+.+.<.+.O.:.,.*.<.| 9 P I I Q K K L I T Q Q T L L U L L Q L Q Q Q Q L Q L L L G L i ! ;.;.;.:.:.:.>.:.>.>.>.>.o.%.p ",
"; E G I V / / / / / ~ / T ' @.T - h b b b l j l n n n n n b b b b b n n n n n n B M b M M M i - G Q Q G Q Q ( ( ( ( ( ( Q L R 1 ",
"O i 3 % a g l l g g k b < & p f * k M M M n v l n M n M M n b N M n n n n n n L L b M n b b b - p i ; 5 j g l b M b b i - 5 i O ",
"O h N i g M M l M b M M I h j g O g V M n M n N B M N N N n N N N M B M L n n n n b n n p B i - i i i L M b b M B M B i j L j % ",
"% j b B b b M l b b b l I I b g % l m b m m N N N B N K N N N N N N N N M n n B N n n M M n j @ p G G Q n n n M N n n n B n j = ",
"# j g b l l g l b l l b b l b j % k M V m m m V K K N K K B B N N N B V L L L n B M N M n b i @ p L b b B G N n b N n n j j j % ",
"O j l g l l l b b l l N N N N c O s m P P K P P K P P Y P P I Y P P Y Y P L L L P B L B n b p . p B b B n B B N M N N M n b b # ",
"@ j j b l g l b b M m N m m m v $ d A s s d c v v m m H v v m N H m m m v v v j l l l j i z p o p L B B L L B N N N N M N n n & ",
"O g g b b l b l b b m N m v m h 0 ^ J J J Y Y ~ ~ ~ ~ ~ Y ~ ~ ~ ) ~ ~ T Q Q T L L L Q M v F R 0 h n m N N V V N N N N M M l N * ",
"$ k g b l k b N m m m N N v N s @ c d k c m V P ~ Y P P H m P P P P K K K L B N N K K b c c y O h N N m N B V N N B N N M M b % ",
"$ v l g g M l m m m N N m m m s $ h v c m V m P m P P P P P P P Y P Y N K N N N G n n n l j e O z N m K P P V B B N N M N l k $ ",
"$ c b b g l M v m m m V K m m c O k m m V P P P P P P N K V m Y V K N P B K N N N n n K N N k $ A K K K m K P V B N N N M m v % ",
"$ c l g l b b N m v m m m m m c $ h V m m V m P V K K P P m H K m m m N K B N N N n n K N L l % c K m m m P P P B N N B M l b * ",
"@ x g g g l v N v m m m V m m s O h m m P P V V m P K V V P V m H m B B K K K K K L K K N N m O z m H m m P P P V V V M M l v % ",
"$ j g j g b m b N m m m m m m s % k N m V V m V K K m m m P m K m H K K K K K K K K K K P P k O c m m m m P V V V N N N M l c % ",
"$ j g b g M m m N m m m m m m k % k m m m V V P m m m P V V P m K K K K K K P P K K K P K K z $ m H m m m V B V N V B V N M l # ",
"@ x g b b M m m m m m m M m v a o a m m v m N V m m V V m V V m N P P K m K K K P m K K K K k O v m m m m V N m N V B N M M l % ",
"$ c g c b M m m m M m m M m m s O a k d m v N V P m m V m V V m K H m m K K m K K K K P P m k * k N m K N V V N V N V N M M k $ ",
"@ c j j M V m m m m m m m m M s o s s s k m V V P V P V ~ V P V K I K H H K H P P P P K m J z O z N K H N N V M N N V V N b k $ ",
"$ x j j l M m m m M m M m m l s O 4 8 8 6 w w w a s s s a s s a w e s w t t e e a w a 8 w y r + z m m m V N N B V V V N N N c $ ",
"% l k g l m m m m m m m m s m d t Y ~ P Y ~ ~ ~ ` ~ ~ ~ ~ ~ ~ ~ T ) ) T Y Y Y Y P P H Y Y ~ [ y k m m P m V N N V V V m m m M * ",
"O k l k v m m m m M m m m m m s = Y Y m P ~ ~ ) ~ ~ ~ ~ ~ ~ ~ ~ T T T T ~ Y P ~ P J H P K ~ [ 2 k P m P V N N N m M m V m N c $ ",
"$ k l M v m m m m m m m m m m s + e h k c m m m v c k c k m m m c c v v v c v v v c c c z s y @ c P N N m N V N M N m M N v v % ",
"$ k v M v M v m l M m m m m H d o s m m V V V m m m N m V V V P V K K K P H H P H H m P m v k @ d P P N V N N N N N V V N v v * ",
"$ k k M m m m m m m V m m m H H + z m P H V V H P V V V m P P P N P P P P K K K K K P P K v A + s P V V V V N N N V V N M N b % ",
"* m m m m m m V m M m m m m d s + D m K H m V m V H H m P V P P P P P P P K K P K K K K v v z @ s P N V N N V N V m N V V M v $ ",
"% m m M m V m V m M m m V H d s o d m H m H m P H P P P V P P m V I P P P H Y P P P K K H H c % z N N V V N V V V m N V N v c @ ",
"% k s k m m m m m V m m H V H s o s m K m V P m P P P P m ~ P P I V V K K H P K K K H K K K v = m P V V V V V P N V N M m j k @ ",
"$ s s H H H H H V m H m H m d d o s m P m P H V H P H V V ~ ~ V V P P N K m K P P m K K P H v * v V m P M V M m V m m m j a c @ ",
"* d H d m m H d m m c c V c H C % c P P m P P H P P P P V V P V I P N P P P P P K K K K P V m * k m m m m m m m m v m k h s D & ",
"O d s s a a s d a s a s a a C C % k P P P P m m P P V P ~ V V P V K K H K K K N H m H H m m m $ r s e s a h f f a a a a w w d + ",
"* * = > > > * ; * * > > > > * * * c m P H V V V P P m P m V P V P N m v N K H m m m m m v m z o & = * ; , , , , > > > ; * * & + ",
"a ..` ,.,.,.,.,.O.,.,.,.....,...* s H m m V P V V P P P K m K P I V P V H H K m m m K H m K z . } =.$.O.,.,.,.+.,.+.X. .` ) ) 0 ",
"* V V ~ P ~ P ) ~ ~ ~ ~ ~ Y } ^ @ s V V m v V H P H H V m K P m N P P P m K m P K K m K K H d o H ' ~ ~ ) ` ` ` ` _ ) ~ I V I ; ",
"O s a k d H m s d m c c d m d s @ s m H H m m H m H H P P P P K m P P m K H m K K K m N K K d X w f k m m m N m N M m v k h z # ",
"* c m m H m s m V P m m V P P v * s V H H H m V H H H H P P P K P N m H H m m H H m K K K K d O h n v N N N V V V V V N V M c $ ",
"* c m m m m k m m m P m N m V s O s P m H H P H P H H H P P P K P m H H m m H m K v K K K K z O h M n N N N N B V N m N N v c % ",
"o s v V H H m m m m m m v c m s X d m m H H V m V V m V m K m P N P m K K K K P K K H K K P k X A N N N N N B M N N m N M b k $ ",
"$ a c m m V H d m m m v m c m s . s m m H H V H m m m H m P H m m m H m K m m P K K H K K P c O c N n N N N M N M M m N m v f O ",
"% k k v m H V m m m s v v v v k @ s m m m m V H m m V P P V H m H m c m H H m m N H H m K K z @ v n v N N m N M M N b N N k h % ",
"$ k v M m m m m b c v c b v v s $ s v m m V m H N H N K N K H m m v c v v H v m K K n H K K z @ c m m N N N M N M N N N N v k $ ",
"* s m m m m m m M c c m m b m s o s m m m m H H H N N K N K K m m m v H H m H m v G n K K K j % l N M N v N v N b N v N v l k $ ",
"O s m m m m m m m c m m v b m s X a d m m m P m H m m N N K N H H H H H H H m m K G H K L K m % l N b m b m N l v N n N N c k $ ",
"$ k v v m m m k m l m l v m v h o s v m m m m P H n N K K N m H c H v H H m K N N K N K K K v % j n v m b N n N l l n n M v j $ ",
"% k k m m V m m m m v m m M n h . C c N V N m N n n G n K N N m v H v v H v N N N n v K K N z X h n v N N b l l l M N v l v k $ ",
"O a l m m m m k m m v m l l N f . u n N m m M m n n n K N B N v v v v m m H m m K v v K K n h . h n v N m N n N m l n b M j h O ",
"O 8 k M m m m k v v v m N M N h o a l l l N V b v n n n M B N m A c v v m m N N n N N n v v p O j b n n l v l l l v M m l h a O ",
"O a a k m m k m m l m m b m N k O e k k k l m M b n n N n B B N m v v m m N N N N n n b j c h # j n v N N v N N l N m M l f h # ",
"O a k v k l m s V m M m M M m a O w h g h j j v v n b b l l b v n v b b v n l j b b j p h h y O h v b n N n n N l N l m k g f $ ",
"O a k k m m M m m m M k m m m s X y c k k j j l n n l n l k l v b b b b x p p G S c G c j v A . p v v n M v n N N b m m l k f $ ",
"% g l m k M m l M m k m k m m s X 4 t 6 q 6 0 a w 0 0 e 9 9 e q w 9 7 7 6 0 p Z z u Z y 8 u r   i c v n v n N n l l m l c g k $ ",
"$ k l l l l m m M M M l M m M k 6 6 3 3 6 , > 5 3 4 3 6 6 5 6 3 5 6 5 3 3 1 1 1 1 3 2 3 3 2 2 2 j v l v N n n n M m l m k j h O ",
"$ s k m m k l m l m l m M m M a 6 T c S x L K K K T L L L L L L I L M n L L L Q L L K l x j K 8 g v l n b n N v N n v v l f e @ ",
"% k k v m m m m k m M M V m V a X u h p f j j j j p p v v v b j l j i i i p i p j j p p i p 6 X u j l b b v n N v b m N l f e O ",
"O a m l l m g l l l m m m M M a O a c j l v v v b j v n n n M n b b p g j j b b x b j l j j y X y j v l v b n n l v m v j f f # ",
"$ a k m M l a l l l g m M M M g $ a l l b v l l j b b n M n M b b B p j p p b b b n j l n j p o i v c v v n n n M c N v j h f O ",
"O y h l b v v j g M l l l M M g X y m m l b l b b b b b b b b j p b g b b b b g b b b j n G h O h n v v j v N n l v m k j j i O ",
"@ e f h l j v b l l l l M M M h O g M B N M N v b b b b b b b b i b b i i b b g j j b b n n j @ h v m l l v n l l v v j h h g O ",
"@ h h j j j v j l g l M M M M a # b B N N b b b b b b b b b b j b b i b b g b b x j b b n G b % j N v m v n n v N l l v j g h # ",
"@ g i h v j l n M M M M M k b a % j B K N l n v L b b b b b b b B b b b b b G b b b b n n n b % j n j j n b n N n b j j h i i # ",
"$ k e % p l j b b n n b a - g g o j n n n n n G b G b b b b b p b b G G G L b b n n n n G I z & c c 2 5 j N n n n b v h : , 9 @ ",
"@ j I F p b v j l l l l T U S z X z n n n n G p b b G L G G b b b L G b b L b L n n b L >.! F W @.@.W [ { { W E @.E @.@.#.z p $ ",
"O w e h 9 9 9 e i g i h c Z D p X p n l x K G G p x G G p b p G G b x x b G L b N L G b F D u X 0 Z y i a e e h p p e q r 5 r + ",
"; 3 , < 7 6 6 6 q e 7 q q 5 0 5 ; 4 w w 0 p p i i r p i i 5 i q q 5 u p i 5 7 7 e e p q r t 0 & 2 6 8 8 6 6 q q 7 6 5 3 < : 2 # "
};
